HIERARCHY
ROOT Hips
{
	OFFSET 0.00000 0.00000 0.00000
	CHANNELS 6 Xposition Yposition Zposition Zrotation Yrotation Xrotation 
	JOINT LHipJoint
	{
		OFFSET 0 0 0
		CHANNELS 3 Zrotation Yrotation Xrotation
		JOINT LeftHip
		{
			OFFSET 1.62964 -1.40469 0.78906
			CHANNELS 3 Zrotation Yrotation Xrotation
			JOINT LeftKnee
			{
				OFFSET 2.29640 -6.30932 0.00000
				CHANNELS 3 Zrotation Yrotation Xrotation
				JOINT LeftAnkle
				{
					OFFSET 2.29451 -6.30412 0.00000
					CHANNELS 3 Zrotation Yrotation Xrotation
					JOINT LeftToe
					{
						OFFSET 0.03611 -0.09921 1.56387
						CHANNELS 3 Zrotation Yrotation Xrotation
						End Site
						{
							OFFSET 0.00000 -0.00000 0.80291
						}
					}
				}
			}
		}
	}
	JOINT RHipJoint
	{
		OFFSET 0 0 0
		CHANNELS 3 Zrotation Yrotation Xrotation
		JOINT RightHip
		{
			OFFSET -1.73712 -1.40469 0.78906
			CHANNELS 3 Zrotation Yrotation Xrotation
			JOINT RightKnee
			{
				OFFSET -2.28137 -6.26801 0.00000
				CHANNELS 3 Zrotation Yrotation Xrotation
				JOINT RightAnkle
				{
					OFFSET -2.28681 -6.28298 0.00000
					CHANNELS 3 Zrotation Yrotation Xrotation
					JOINT RightToe
					{
						OFFSET -0.15927 -0.43759 1.61103
						CHANNELS 3 Zrotation Yrotation Xrotation
						End Site
						{
							OFFSET -0.00000 -0.00000 0.84630
						}
					}
				}
			}
		}
	}
	JOINT lowerback
	{
		OFFSET 0 0 0
		CHANNELS 3 Zrotation Yrotation Xrotation
		JOINT Chest
		{
			OFFSET -0.04227 2.04338 -0.00225
			CHANNELS 3 Zrotation Yrotation Xrotation
			JOINT Chest2
			{
				OFFSET -0.02148 2.04482 -0.04273
				CHANNELS 3 Zrotation Yrotation Xrotation
				JOINT lowerneck
				{
					OFFSET 0 0 0
					CHANNELS 3 Zrotation Yrotation Xrotation
					JOINT Neck
					{
						OFFSET 0.09180 1.44629 0.19359
						CHANNELS 3 Zrotation Yrotation Xrotation
						JOINT Head
						{
							OFFSET 0.00887 1.40645 0.14750
							CHANNELS 3 Zrotation Yrotation Xrotation
							End Site
							{
								OFFSET -0.00669 1.50671 0.03707
							}
						}
					}
				}
				JOINT LeftCollar
				{
					OFFSET 0 0 0
					CHANNELS 3 Zrotation Yrotation Xrotation
					JOINT LeftShoulder
					{
						OFFSET 2.17674 1.86763 -0.06520
CHANNELS 3 Zrotation Xrotation Yrotation
						JOINT LeftElbow
						{
OFFSET 0 -4.657760 0.000000
CHANNELS 3 Zrotation Xrotation Yrotation
							JOINT LeftWrist
							{
OFFSET 0 -3.555390 0.000000
CHANNELS 3 Zrotation Xrotation Yrotation
								JOINT lhand
								{
									OFFSET 0 0 0
CHANNELS 3 Zrotation Xrotation Yrotation
									JOINT LFingers
									{
OFFSET 0 -0.707260 0.000000
CHANNELS 3 Zrotation Xrotation Yrotation
										End Site
										{
OFFSET 0 -0.570220 0.000000
										}
									}
								}
								JOINT LThumb
								{
OFFSET 0 0.000000 0.000000
CHANNELS 3 Zrotation Xrotation Yrotation
									End Site
									{
OFFSET 0 -0.578920 0.578920
									}
								}
							}
						}
					}
				}
				JOINT RightCollar
				{
					OFFSET 0 0 0
					CHANNELS 3 Zrotation Yrotation Xrotation
					JOINT RightShoulder
					{
						OFFSET -2.80694 1.55459 -0.32496
CHANNELS 3 Zrotation Xrotation Yrotation
						JOINT RightElbow
						{
OFFSET 0 -4.719250 -0.000000
CHANNELS 3 Zrotation Xrotation Yrotation
							JOINT RightWrist
							{
OFFSET 0 -3.569900 0.000000
CHANNELS 3 Zrotation Xrotation Yrotation
								JOINT rhand
								{
									OFFSET 0 0 0
CHANNELS 3 Zrotation Xrotation Yrotation
									JOINT RFingers
									{
OFFSET 0 -0.507760 0.000000
CHANNELS 3 Zrotation Xrotation Yrotation
										End Site
										{
OFFSET 0 -0.409370 0.000000
										}
									}
								}
								JOINT RThumb
								{
OFFSET 0 0.000000 0.000000
CHANNELS 3 Zrotation Xrotation Yrotation
									End Site
									{
OFFSET 0 -0.415620 0.415620
									}
								}
							}
						}
					}
				}
			}
		}
	}
}
MOTION
Frames: 4
Frame Time: 0.008333333333333333
9.551700 16.357200 9.867700 177.958000 -2.174800 -152.679000 0.000000 0.000000 0.000000 -17.298800 -19.811900 -21.755500 0.172100 2.672500 7.368200 0.133000 0.541300 -7.108300 4.375700 -12.644200 -38.050900 0.000000 0.000000 0.000000 15.899100 15.205700 -20.831800 -0.105100 -2.090200 5.754900 -1.044700 0.720900 -19.096000 -2.629100 10.069000 -29.200400 -4.972100 -1.482500 -28.249600 -0.485500 -1.259200 -3.324500 1.762300 -1.188600 12.007700 -3.597000 0.399200 0.138400 6.142700 -0.242100 8.866500 2.634000 -0.220100 2.845500 0.000000 -0.000000 0.000000 2.886800 -0.435500 -21.201400 10.295500 -17.200500 1.561200 19.909600 3.351300 9.842400 0.000000 0.000000 0.000000 -7.125000 0.000000 0.000000 -5.038500 19.546200 -3.074300 0.000000 -0.000000 0.000000 1.576600 5.027300 12.739600 -15.897300 -25.381200 -3.601800 -12.123700 16.803900 52.012900 0.000000 0.000000 0.000000 7.125000 0.000000 -0.000000 63.058400 75.453900 -49.015900
9.550301 16.355871 9.863993 177.887351 -2.152766 -152.657316 0.000000 0.000000 0.000000 -17.393652 -19.838971 -21.770050 0.175388 2.697682 7.438220 0.135308 0.542279 -7.167618 4.374301 -12.642451 -38.044395 0.000000 0.000000 0.000000 15.792776 15.218291 -20.845930 -0.105590 -2.095516 5.769659 -1.025114 0.698446 -18.919656 -2.573000 9.969181 -28.877161 -5.016868 -1.462984 -28.277300 -0.530128 -1.217510 -3.334363 1.752157 -1.172162 12.007070 -3.630926 0.391995 0.108042 6.226780 -0.249515 8.801377 2.668206 -0.220660 2.830741 0.000000 0.000000 0.000000 2.855532 -0.554415 -21.331857 10.563058 -17.614953 1.641642 20.164008 3.198459 10.206000 0.000000 0.000000 0.000000 -7.125000 0.000000 0.000000 -4.862996 19.143708 -3.009456 0.000000 0.000000 0.000000 1.254411 4.161250 8.183692 -16.386530 -26.039988 -3.815147 -13.322572 13.793326 51.183224 0.000000 0.000000 0.000000 7.125000 0.000000 0.000000 59.338463 75.588763 -45.881234
9.550219 16.354103 9.859168 177.872960 -2.127340 -152.652788 0.000000 0.000000 0.000000 -17.424505 -19.832485 -21.747652 0.175563 2.699004 7.441886 0.135422 0.575099 -7.184601 4.337351 -12.596055 -37.874898 0.000000 0.000000 0.000000 15.778820 15.200837 -20.839232 -0.105481 -2.094648 5.767262 -1.011314 0.699613 -18.789636 -2.574316 9.971586 -28.884852 -5.036499 -1.435009 -28.274277 -0.552492 -1.179570 -3.363777 1.752468 -1.156641 11.968017 -3.644742 0.391334 0.108207 6.290710 -0.250944 8.753689 2.691877 -0.219543 2.815462 0.000000 0.000000 0.000000 2.841382 -0.596682 -21.673264 10.868961 -18.086224 1.735731 20.509986 2.727019 10.397831 0.000000 0.000000 0.000000 -7.125000 0.000000 0.000000 -4.620619 18.914900 -2.882409 0.000000 0.000000 0.000000 1.092898 3.862257 6.865137 -17.058341 -26.928520 -4.116992 -14.052700 12.128932 51.434913 0.000000 0.000000 0.000000 7.125000 0.000000 0.000000 59.924756 75.964821 -46.796083
9.551138 16.352054 9.853423 177.902614 -2.102443 -152.654189 0.000000 0.000000 0.000000 -17.400735 -19.807357 -21.706795 0.173611 2.683991 7.400130 0.134090 0.630411 -7.174775 4.275390 -12.518110 -37.590439 0.000000 0.000000 0.000000 15.833761 15.166981 -20.823044 -0.104921 -2.089033 5.751726 -1.003279 0.713280 -18.709437 -2.615584 10.045060 -29.122689 -5.033958 -1.401688 -28.259355 -0.557428 -1.146484 -3.407255 1.758525 -1.142856 11.906763 -3.647097 0.397462 0.128868 6.339130 -0.245286 8.721774 2.708316 -0.215963 2.801025 0.000000 0.000000 0.000000 2.843275 -0.581627 -22.201154 11.207011 -18.604492 1.841741 20.897369 1.971432 10.431919 0.000000 0.000000 0.000000 -7.125000 0.000000 0.000000 -4.346790 18.849099 -2.717270 0.000000 0.000000 0.000000 1.051905 3.968685 7.855260 -17.799817 -27.899679 -4.455358 -14.329480 11.494137 52.358543 0.000000 0.000000 0.000000 7.125000 0.000000 0.000000 63.267371 76.428112 -50.233005
